<svg width="319" height="400" viewBox="0 0 319 400" fill="none" xmlns="http://www.w3.org/2000/svg">
<path fill-rule="evenodd" clip-rule="evenodd" d="M167.639 164.766C181.55 163.767 200.622 166.532 204.646 182.434C205.893 188.221 208.352 190.761 212.483 194.545C238.701 228.19 147.224 233.845 142.521 201.037C132.614 204.655 121.83 205.421 111.917 209.077C106.541 211.068 101.666 214.21 96.9941 217.495C77.9438 231.06 59.1631 245.013 40.1807 258.676C47.5263 262.067 61.4923 275.015 55.8015 283.716C54.4758 285.411 52.508 286.579 50.7673 287.818L49.8494 288.475C47.8747 289.894 44.5506 292.312 42.7124 293.626L42.3734 293.874C42.2404 293.97 42.0905 294.078 41.9551 294.175C55.2111 313.606 70.7251 331.535 87.9339 347.542C89.3993 348.907 88.7991 351.961 86.6783 352.317L84.1518 352.688C75.9937 353.88 67.6805 354.952 59.4594 354.305C51.4526 353.432 46.6277 346.326 41.1542 341.178C30.2239 329.977 20.0492 318.03 10.7816 305.408L10.5886 305.141C7.70427 301.19 3.87582 297.151 3.59563 292.048C3.08462 290.514 4.42942 288.316 5.72158 287.27L6.16272 286.632C13.0932 276.639 20.9368 267.002 30.7637 259.765C30.7272 258.686 31.2244 257.553 32.2091 256.838L73.2784 227.041C83.8749 219.73 93.7241 211.138 105.21 205.234C116.954 199.564 130.208 199.342 142.244 194.61C142.499 191.2 149.65 190.329 149.424 190.856C156.97 186.29 160.854 180.857 162.052 175.864C163.25 170.871 161.761 166.318 167.639 164.766ZM269.2 271.745C281.899 252.588 294.004 273.784 299.291 286.559C305.537 304.041 292.601 325.546 284.245 340.618C281.167 344.803 277.119 353.631 271.693 354.271C258.025 354.215 244.338 353.25 230.661 352.963C221.83 350.766 234.22 337.461 242.779 342.321C245.372 343.294 246.668 346.246 249.196 347.192C250.118 347.39 250.181 346.978 250.556 346.058L250.609 345.929C251.277 344.338 251.925 342.737 252.583 341.142C258.151 327.394 264.038 313.768 269.891 300.147C271.141 297.19 269.388 294.753 267.108 292.993C265.362 291.553 257.859 288.036 264.929 289.584C262.206 283.249 265.478 276.818 269.2 271.745ZM237.671 245.521C238.894 245.368 240.464 246.603 240.652 247.8C242.212 257.72 240.474 267.528 238.391 277.233L238.008 279.009C237.239 282.549 236.381 286.158 234.464 289.26C232.509 292.426 229.55 294.812 226.154 296.263C215.258 300.616 201.708 296.311 193.693 288.173C188.565 281.131 193.073 272.285 193.934 264.567C193.12 262.488 192.821 260.083 192.35 257.938L192.293 257.682L190.465 249.684C190.062 247.92 191.345 245.505 193.452 245.748C208.145 247.437 222.996 247.361 237.671 245.521Z" fill="white"/>
<path fill-rule="evenodd" clip-rule="evenodd" d="M288.984 269.239C288.94 269.042 289.176 268.891 289.329 269.039C291.914 271.537 293.739 274.729 295.743 277.687C297.651 280.504 299.728 283.213 301.151 286.322C302.474 289.212 303.327 292.144 303.581 295.32C303.835 298.474 303.506 301.634 302.951 304.74C301.859 310.859 299.526 316.653 296.964 322.281C294.474 327.751 291.66 333.066 288.688 338.285L287.623 340.148C286.324 342.416 285.011 344.68 283.605 346.878C281.855 349.612 280.258 352.435 277.95 354.717C276.312 356.342 273.224 354.717 273.97 352.396C274.294 351.385 274.549 350.433 275.052 349.495C275.433 348.78 275.863 348.086 276.267 347.382C277.076 345.973 277.877 344.559 278.686 343.15C280.385 340.19 282.173 337.284 283.856 334.313C286.775 329.161 289.531 323.913 291.968 318.512L292.255 317.874C294.498 312.873 296.623 307.692 297.607 302.281C298.644 296.581 297.716 291.209 295.697 285.851C294.652 283.08 293.477 280.372 292.256 277.674L292.021 277.158C290.842 274.583 289.592 272.022 288.984 269.239ZM163.462 170.642C163.486 170.541 163.657 170.533 163.672 170.642C164.398 175.483 162.783 180.603 160.152 184.629C158.715 186.828 156.944 188.814 154.857 190.41L154.695 190.533C152.563 192.131 149.682 193.674 147.035 192.638C146.953 192.606 146.875 192.57 146.802 192.529C147.1 192.991 147.375 193.477 147.655 193.963C148.487 195.411 149.234 196.911 150.046 198.372C151.497 200.984 153.227 203.321 155.412 205.367C164.152 213.545 176.423 215.489 187.948 215.396L188.762 215.388C193.824 215.352 200.445 215.611 204.353 211.938C206.453 209.965 207.61 207.16 208.654 204.527C209.681 201.946 210.384 199.282 211.237 196.656C209.455 195.432 207.822 193.938 206.539 192.191C205.201 190.371 204.19 188.323 203.607 186.137L203.52 185.81C203.069 184.067 202.616 181.761 203.342 180.114C203.425 179.925 203.736 179.938 203.824 180.114C204.216 180.902 204.291 181.791 204.532 182.633C204.812 183.613 205.128 184.588 205.546 185.516C206.352 187.314 207.418 189.025 208.696 190.522C209.751 191.762 210.894 192.9 212.201 193.857C212.971 192.523 214.757 192.344 216.253 192.783C218.259 193.371 220.236 194.125 222.17 194.921L222.556 195.081C224.467 195.877 226.626 196.607 228.415 197.691C229.502 198.211 230.544 198.733 231.524 199.196C236.407 201.496 241.218 203.936 246.007 206.424L247.033 206.957C249.04 208.005 251.028 209.063 252.773 210.524C254.549 212.01 255.928 214.043 257.225 215.948C260.188 220.305 262.98 224.786 265.91 229.166C271.826 238.003 277.743 246.841 283.693 255.658C285.132 257.792 286.755 259.874 288.046 262.099C289.282 264.225 289.249 266.409 289.008 268.782L288.962 269.218C288.5 273.571 287.705 277.752 285.269 281.485C281.435 287.354 275.394 291.008 269.003 293.524C269.783 294.107 270.517 294.736 271.448 295.136C272.879 295.749 274.406 296.067 275.954 296.194C277.605 296.327 279.467 295.913 280.804 297.039C281.341 297.488 281.357 298.57 280.804 299.019C279.518 300.072 277.856 299.77 276.289 299.594L276.195 299.583C274.74 299.422 273.307 299.152 271.94 298.617C271.603 298.484 271.269 298.336 270.945 298.172C270.955 298.201 270.96 298.235 270.955 298.271C270.722 300.062 270.216 301.755 269.681 303.466L269.342 304.551C268.653 306.765 267.958 308.975 267.242 311.184C265.881 315.39 264.398 319.556 262.909 323.717L261.624 327.308C260.305 330.992 258.968 334.67 257.492 338.292C256.579 340.527 255.661 342.763 254.746 344.996C253.852 347.177 253.107 349.532 251.998 351.608C251.085 353.319 248.596 352.094 248.996 350.337C249.519 348.032 250.507 345.744 251.262 343.501C252.029 341.224 252.781 338.945 253.561 336.673C254.918 332.726 256.422 328.832 257.932 324.942L259.43 321.085C260.899 317.306 262.385 313.531 263.973 309.802L264.147 309.393C265.797 305.491 267.501 301.105 270.499 298.081C270.538 298.04 270.592 298.019 270.647 298.013C269.91 297.613 269.221 297.127 268.614 296.553L268.584 296.523C268.345 296.268 267.354 295.014 267.035 294.263C266.62 294.411 266.205 294.554 265.791 294.694C265.067 294.938 264.468 294.762 264.046 294.374L263.241 294.874C262.38 295.401 261.455 295.901 260.504 295.926C259.306 295.957 258.365 295.295 257.725 294.317C257.149 293.444 256.807 292.5 256.079 291.718C255.362 290.949 254.533 290.3 253.686 289.68L252.687 288.952C250.856 287.611 249.08 286.257 247.606 284.487C246.864 283.593 245.871 282.532 245.42 281.458C245.332 281.251 245.278 281.056 245.267 280.866C245.169 281.536 245.068 282.21 244.967 282.88C243.551 292.318 242.408 301.821 242.042 311.366C241.863 316.073 241.783 320.786 241.993 325.496C242.097 327.848 242.268 330.198 242.504 332.543C242.62 333.717 242.742 334.89 242.885 336.059L242.918 336.33C242.959 336.689 242.986 337.036 242.955 337.364C244.096 337.928 244.751 339.353 245.208 340.465C245.555 341.313 245.286 342.137 244.726 342.732C245.394 343.343 245.991 344.06 246.491 344.881C246.592 345.048 246.374 345.178 246.245 345.074C245.423 344.419 244.539 343.881 243.616 343.467C243.131 343.652 242.602 343.701 242.115 343.566C241.586 343.421 241.13 343.067 240.8 342.618C238.179 342.186 235.454 342.714 233.095 344.359C232.605 344.702 232.162 345.089 231.739 345.51C231.666 345.584 231.591 345.677 231.516 345.768L232.031 345.966C232.244 346.047 232.419 346.111 232.486 346.124C232.935 346.216 233.391 346.265 233.848 346.304L234.531 346.36C237.158 346.579 239.776 346.652 242.218 347.754C242.732 347.985 242.553 348.778 242.068 348.91C240.285 349.395 238.515 349.358 236.7 349.228L236.31 349.199C234.622 349.069 232.81 349.077 231.164 348.609C231.558 349.69 231.021 351.102 229.375 351.323C224.43 351.983 219.455 351.671 214.506 351.234C209.507 350.792 204.511 350.374 199.5 350.112C183.289 349.257 167.053 349.421 150.828 349.653L141.659 349.786C134.347 349.889 127.034 349.97 119.722 349.914L116.299 349.882C114.853 349.868 113.405 349.85 111.961 349.807L111.094 349.779C109.372 349.716 107.094 349.976 105.598 348.954C104.363 348.112 104.089 346.568 104.833 345.324C105.048 344.965 105.343 344.645 105.652 344.333C106.285 338.914 106.64 333.468 107.003 328.025C108.263 308.978 107.526 290.028 104.62 271.173C96.8215 273.562 89.1422 276.559 81.6599 279.774C77.6128 281.513 73.5865 283.317 69.6068 285.209C65.9745 286.938 62.3267 289.098 58.4455 290.221C58.0927 290.535 57.5994 290.684 57.1619 290.545L57.1051 290.525H57.1026C56.7033 290.618 56.2599 290.561 55.8244 290.299C55.7362 290.245 55.6481 290.191 55.5599 290.136L55.4277 290.052C54.0614 289.189 52.6873 288.126 51.7203 286.826C50.5458 287.918 49.2832 288.919 48.0413 289.932C46.6932 291.034 45.3502 292.142 44.0176 293.259C43.4887 293.704 42.9053 294.128 42.4387 294.64L42.3709 294.715C42.36 294.727 42.3497 294.739 42.3402 294.751C44.3598 296.061 46.128 298.05 47.7121 299.778C49.4131 301.633 51.0553 303.548 52.6841 305.469L54.2609 307.334C65.4108 320.534 76.6748 334.212 91.11 343.915C93.3915 345.448 91.2163 349.183 88.9503 347.616C84.6621 344.655 80.6047 341.367 76.708 337.907C69.879 331.849 63.7345 325.051 57.9815 317.968C55.0699 314.384 52.244 310.711 49.4751 307.015L48.5353 305.761C47.2829 304.089 46.0372 302.411 44.8446 300.696L44.5951 300.336C43.549 298.823 42.4366 297.123 41.762 295.38C41.5027 295.643 41.2098 295.864 40.782 296.03C40.0509 296.316 39.1538 295.716 38.9749 295.001C38.5394 293.267 40.0431 292.235 41.2668 291.315C42.7524 290.203 44.2665 289.129 45.7832 288.061L46.3249 287.677C48.2216 286.328 50.1282 284.944 52.1947 283.878C52.2569 283.795 52.3321 283.717 52.4177 283.65C52.5162 283.572 52.6121 283.496 52.7106 283.421C50.2425 279.408 47.5358 275.55 44.5154 271.906C42.2442 269.164 39.8331 266.546 37.2819 264.067L36.1359 262.954C34.4024 261.276 32.5999 259.573 30.6759 258.114L30.0736 258.799C29.2694 259.711 28.4572 260.616 27.5985 261.472C25.9081 263.157 24.241 264.875 22.5818 266.593C19.8262 269.452 17.1639 272.398 14.5101 275.348L13.1835 276.824C10.4198 279.899 7.459 282.917 4.94674 286.202L4.82128 286.368C3.72449 287.843 2.94373 289.475 3.45339 291.349C3.94516 293.155 5.11435 294.757 6.12211 296.316L6.22232 296.472C10.3368 302.898 14.7443 309.159 19.4654 315.151C28.9207 327.152 39.706 338.526 52.5758 346.87C54.3596 348.027 52.6925 350.901 50.9062 349.732C43.3902 344.806 36.486 338.89 30.1341 332.537C24.3033 326.707 19.0195 320.287 14.0676 313.698C11.6539 310.482 9.34124 307.199 7.12455 303.844C4.97526 300.587 2.48894 297.237 0.930771 293.644C0.114158 291.754 -0.18665 289.709 0.482247 287.718C1.09568 285.888 2.30883 284.368 3.57088 282.939L3.68932 282.805C6.59047 279.538 9.54347 276.309 12.5224 273.112C15.5117 269.905 18.6384 266.811 21.8299 263.809C24.337 261.446 26.9503 259.364 29.7452 257.436C29.4937 257.256 29.2422 257.085 28.9855 256.919C28.2052 256.409 28.0081 255.32 28.6926 254.629C30.5619 252.736 32.7163 251.091 34.7438 249.368C36.6493 247.748 38.5549 246.126 40.4605 244.504C44.3391 241.208 48.2176 237.91 52.0962 234.611C59.0626 228.688 65.9901 222.722 72.9331 216.772C75.8282 214.292 78.7503 211.843 81.6649 209.386L86.8432 205.017L89.3759 202.885C90.6735 201.796 91.9988 200.718 93.4745 199.887C96.9466 197.932 101.121 197.086 104.946 196.05L105.201 195.981C109.492 194.803 113.806 193.696 118.143 192.708C122.486 191.72 126.847 190.821 131.226 190.007C135.161 189.274 139.19 188.645 143.204 188.552C144.199 188.172 145.449 188.04 146.429 188.445C146.833 188.614 147.256 188.861 147.632 189.173C149.594 188.482 151.531 188.151 153.364 186.982C155.194 185.815 156.815 184.281 158.179 182.592C160.997 179.093 162.472 174.96 163.462 170.642ZM208.577 289.116C207.021 289.007 205.621 289.651 204.231 290.338C205.014 290.678 205.797 291.016 206.58 291.351L211.791 293.582C213.513 294.317 215.336 294.957 216.972 295.864C217.088 295.929 217.182 296.007 217.252 296.098C218.952 295.006 220.752 294.032 222.476 292.994C222.87 292.758 223.266 292.521 223.663 292.285C221.61 292.973 219.505 293.319 217.275 292.672C214.301 291.812 211.719 289.337 208.577 289.116ZM212.839 283.886L212.559 283.696C211.051 282.658 209.25 281.324 207.418 282.256C206.554 282.696 205.847 283.405 204.996 283.878C204.141 284.357 203.2 284.723 202.245 284.944C200.661 285.311 198.846 285.365 197.143 285.011L197.169 287.32C198.458 287.853 199.738 288.399 201.019 288.95C201.851 288.665 202.651 288.322 203.492 287.947L204.06 287.692C205.681 286.961 207.317 286.473 209.108 286.704C212.481 287.138 215.03 289.651 218.255 290.488C222.209 291.518 225.776 288.56 229.512 287.829C230.128 287.708 230.763 287.637 231.394 287.626L231.604 287.624L231.698 287.569C232.501 287.096 233.704 286.644 234.264 285.849C234.874 284.986 234.925 283.541 235.125 282.527C235.146 282.425 235.167 282.321 235.185 282.22C234.832 282.22 234.474 282.238 234.111 282.306C232.971 282.516 231.897 282.922 230.834 283.374C228.825 284.229 226.86 285.204 224.744 285.773C222.673 286.332 220.508 286.597 218.374 286.288C216.292 285.986 214.563 285.046 212.839 283.886ZM213.163 275.771L212.851 275.569C212.027 275.042 211.082 274.496 210.073 274.69C209.17 274.864 208.395 275.584 207.61 276.029C205.885 277.003 203.951 277.536 201.978 277.671C200.337 277.783 198.634 277.583 197.055 277.094L197.109 282.205C197.688 282.389 198.286 282.522 198.917 282.568C200.83 282.711 202.697 282.251 204.301 281.193L205.113 280.653C206.503 279.738 207.806 279.012 209.645 279.346C211.465 279.678 212.992 280.848 214.48 281.867L214.724 282.031C216.433 283.162 218.165 283.892 220.262 283.91C222.525 283.928 224.762 283.296 226.87 282.519C228.962 281.75 230.951 280.827 233.188 280.544C233.873 280.458 234.708 280.432 235.493 280.567C235.597 279.987 235.695 279.41 235.789 278.831C235.991 277.586 236.165 276.343 236.315 275.098C232.346 274.027 228.68 277.492 224.993 278.56C222.854 279.179 220.526 279.171 218.387 278.573C216.408 278.02 214.852 276.87 213.163 275.771ZM213.173 267.165C212.326 267.001 211.488 267.394 210.767 267.797C208.929 268.818 207.343 270.24 205.261 270.778C202.582 271.469 199.653 270.874 196.993 269.743C197.003 271.321 197.016 272.899 197.029 274.477C197.529 274.667 198.043 274.82 198.566 274.942C200.428 275.368 202.401 275.311 204.234 274.773C206.103 274.224 207.537 272.743 209.411 272.28C211.328 271.806 213.135 272.729 214.68 273.779L215.145 274.097C216.91 275.298 218.623 276.342 220.832 276.546C223.168 276.762 225.198 276.029 227.285 275.057L227.771 274.831C230.413 273.614 233.843 272.229 236.481 273.614C236.688 271.649 236.839 269.684 236.94 267.716C236.577 267.581 236.201 267.482 235.768 267.479C234.734 267.475 233.647 267.802 232.683 268.142C230.575 268.888 228.612 270.001 226.525 270.799C224.547 271.558 222.356 271.953 220.246 271.613C218.291 271.298 216.824 270.274 215.473 268.87L215.277 268.663C214.684 268.031 214.051 267.336 213.173 267.165ZM214.721 259.869C213.744 259.352 212.554 258.871 211.423 259.021C210.345 259.164 209.626 259.898 208.962 260.682L208.602 261.111C207.414 262.52 206.245 263.705 204.413 264.285C202.515 264.883 200.503 264.649 198.738 263.773C198.11 263.461 197.527 263.074 196.941 262.692L196.972 266.837C198.144 267.422 199.336 267.95 200.646 268.27C203.062 268.86 205.115 268.423 207.182 267.087L207.399 266.945C208.955 265.921 210.551 264.701 212.473 264.586C214.349 264.474 215.757 265.517 216.993 266.793L217.137 266.944C218.696 268.592 220.269 269.395 222.587 269.205C224.834 269.021 226.937 268.027 228.996 267.17L229.183 267.092C231.065 266.317 233.235 265.52 235.301 265.816C235.797 265.886 236.437 266.039 237.007 266.307C237.09 264.368 237.129 262.426 237.137 260.482C235.962 259.461 234.135 259.292 232.665 259.71C230.362 260.365 228.478 262.055 226.279 262.972C224.329 263.786 222.297 263.968 220.308 263.198C218.255 262.403 216.645 260.888 214.721 259.869ZM237.007 251.702C233.567 251.821 230.202 254.064 226.917 254.92C223.247 255.874 220.253 254.573 216.984 253.128L216.562 252.942C214.884 252.204 213.083 251.541 211.224 251.842C209.411 252.139 207.809 253.144 206.251 254.054L205.952 254.226C203.114 255.847 200.224 256.956 196.91 256.679C196.928 257.722 196.92 258.761 196.923 259.78C197.467 260.092 197.991 260.446 198.489 260.768L198.667 260.882C200.247 261.872 201.876 262.523 203.759 261.912C205.58 261.319 206.435 259.731 207.685 258.424C208.833 257.223 210.332 256.492 212.012 256.562C213.819 256.635 215.527 257.433 217.021 258.408C218.514 259.383 219.958 260.643 221.706 261.132C225.626 262.223 228.983 258.067 232.691 257.42C234.246 257.147 235.962 257.493 237.137 258.434C237.124 256.193 237.075 253.948 237.007 251.702ZM207.394 250.761C206.91 250.779 206.425 250.8 205.94 250.821C204.146 250.899 202.352 250.987 200.558 251.088C199.316 251.156 197.789 251.538 196.57 251.158C196.539 251.283 196.498 251.403 196.443 251.52C196.627 252.44 196.741 253.391 196.811 254.353C197.936 254.475 199.08 254.434 200.189 254.202C202.852 253.649 205.014 251.964 207.394 250.761ZM236.955 249.989C230.404 250.441 223.802 250.286 217.24 250.428L216.453 250.446C216.422 250.446 216.391 250.449 216.36 250.449C217.112 250.742 217.859 251.076 218.603 251.417L219.346 251.759C221.104 252.57 222.893 253.233 224.861 253.09C226.969 252.936 228.955 252.074 230.925 251.377C232.805 250.711 234.97 250.264 236.974 250.555C236.968 250.366 236.963 250.179 236.955 249.989Z" fill="black"/>
<path fill-rule="evenodd" clip-rule="evenodd" d="M232.467 117.196C231.479 100.999 226.22 82.6345 210.742 74.6816C176.619 60.9952 131.754 95.4616 129.378 130.672C128.55 142.724 135.246 155.894 147.483 159.245C150.203 162.847 154.318 165.047 158.378 166.957C206.746 192.036 237.989 171.649 232.467 117.196Z" fill="white"/>
<path fill-rule="evenodd" clip-rule="evenodd" d="M243.486 107.121C241.777 102.376 239.971 97.6678 238.071 92.9961C236.221 88.4494 234.55 83.8045 232.253 79.4732C218.532 53.6044 193.58 53.6044 180.682 56.9845C173.994 54.1044 161.466 54.9168 154.501 57.5158C143.226 61.7231 129.481 78.274 124.782 85.7102C114.407 102.129 107.932 123.981 114.824 142.953C115.724 145.433 116.873 147.729 118.167 149.943C117.352 151.046 116.414 152.091 115.375 153.119C112.288 156.171 109.201 159.123 106.534 162.566C103.884 165.987 101.687 169.626 100.051 173.637C96.9672 181.203 96.8187 189.769 100.896 196.988C104.443 203.269 110.727 207.946 117.807 208.392C118.171 208.442 118.535 208.489 118.9 208.525C119.838 210.07 120.982 211.491 122.287 212.731C126.287 216.533 135.821 218.483 141.259 218.608C141.538 218.832 141.819 219.056 142.101 219.278C145.428 221.895 148.92 224.535 152.739 226.397C155.327 227.66 158.719 228.715 161.419 227.803C162.644 228.621 164.652 228.449 165.867 227.78C167.863 226.681 169.486 224.702 170.473 222.676C172.868 217.757 172.292 212.374 171.677 207.119C171 201.315 170.348 195.508 169.687 189.703C169.168 185.164 168.626 180.55 167.245 176.178C166.531 173.912 165.596 171.735 164.387 169.688C164.418 169.517 164.413 169.345 164.363 169.183C163.967 167.897 163.149 167.222 162.18 166.347C162.055 166.235 161.93 166.121 161.807 166.004C161.322 165.452 160.804 164.939 160.249 164.504C160.035 164.288 159.824 164.069 159.613 163.85C157.86 162.014 156.202 160.085 154.73 158.017C153.302 156.012 152.013 153.918 150.785 151.785C149.537 149.616 148.711 147.223 147.466 145.07C147.359 144.885 147.088 144.848 146.937 145.002C146.551 145.4 146.304 145.843 146.35 146.309L146.158 146.338C146.085 145.635 145.436 145.062 144.555 145.215C143.237 145.445 142.153 145.531 141.012 145.093C141.212 143.762 141.397 142.429 141.58 141.093C141.913 138.635 142.223 136.169 142.489 133.703C143.133 133.856 143.771 134.078 144.396 134.359C145.287 134.758 146.129 135.294 146.848 135.953C147.557 136.604 148.047 137.481 148.912 137.934C149.907 138.453 151.108 137.596 150.817 136.471C150.225 134.198 146.877 132.896 144.805 132.466C144.094 132.317 143.367 132.255 142.64 132.271C142.804 130.687 142.95 129.104 143.07 127.518C143.127 126.768 143.179 126.018 143.229 125.266C144.839 124.779 146.564 124.633 148.24 124.862C148.792 125.302 149.344 125.737 149.879 126.177C151.575 127.578 153.263 128.987 154.931 130.422C155.082 130.549 155.23 130.677 155.382 130.807C156.372 131.659 157.607 130.815 157.44 129.609C156.08 119.729 162.135 111.87 169.225 105.782C177.074 99.0402 191.342 98.2551 200.675 86.5771C204.974 87.4514 214.571 90.0483 218.532 96.3554C224.077 105.194 223.352 113.113 223.774 123.138C224.196 133.172 225.27 143.637 222.99 153.53C220.887 162.652 215.194 170.446 206.361 174.029C206.142 174.118 205.92 174.204 205.699 174.287C201.131 176.008 196.147 176.495 191.342 175.589C186.024 174.584 181.584 172.152 177.159 169.16C176.904 168.991 176.532 169.339 176.724 169.595C182.556 177.318 194.01 179.899 203.096 177.86C203.521 177.764 203.943 177.659 204.362 177.545C202.33 183.386 202.739 189.797 205.386 195.484C206.978 198.906 209.407 201.867 212.364 204.203C215.624 206.776 219.668 208.854 221.929 212.465C224.001 215.775 223.386 219.494 219.84 221.405C218.946 221.889 218.602 223.455 219.488 224.142C219.827 224.402 220.165 224.668 220.512 224.928C222.498 226.426 227.951 229.238 228.834 229.342C236.677 230.272 241.951 224.517 245.331 217.728C249.299 209.76 248.267 200.049 243.895 192.461C240.388 186.373 233.48 180.373 236.227 172.667C237.206 169.915 239.21 167.569 241.156 165.449C243.376 163.035 245.763 160.775 247.892 158.275C250.008 155.793 251.884 153.093 252.931 149.978C254.461 145.426 253.7 140.505 252.551 135.961C250.089 126.206 246.891 116.581 243.486 107.121Z" fill="black"/>
<path fill-rule="evenodd" clip-rule="evenodd" d="M232.493 119.385C232.279 119.35 232.065 119.316 231.85 119.284C231.683 119.189 231.486 119.116 231.258 119.072C230.736 118.94 230.218 118.85 229.7 118.802C222.273 117.13 205.091 119.504 204.382 125.845C202.017 126.634 199.97 125.927 197.229 125.997C195.143 117.273 159.069 118.504 157.334 123.764C157.327 123.762 157.321 123.761 157.314 123.759C155.647 123.243 153.19 123.367 151.282 123.285C147.207 123.2 143.129 123.563 139.143 124.423C131.678 125.609 121.491 126.999 126.683 136.323C126.684 136.325 126.685 136.327 126.686 136.328L126.687 136.327C127.581 137.245 129.1 136.506 129.156 135.264C127.411 130.847 131.353 130.316 134.386 129.047C141.933 126.334 149.617 125.958 157.422 126.797C158.009 127.489 158.9 128.092 159.842 128.408C165.061 129.274 162.311 133.147 165.609 133.71C165.003 147.21 181.387 154.579 190.88 145.705C194.671 141.998 195.574 136.506 196.453 131.556C196.918 131.452 197.213 131.197 197.386 130.861C198.503 129.745 199.205 128.714 201.415 128.408C203.625 128.102 205.326 128.716 205.556 128.905C205.614 129.022 205.676 129.139 205.748 129.256C205.849 129.431 205.987 129.57 206.143 129.68C203.961 143.123 214.393 151.625 224.925 144.652C229.501 140.346 230.468 133.753 230.659 127.868C231.279 127.494 231.672 126.768 231.457 125.856C231.161 124.598 231.855 123.509 232.961 122.962C234.397 122.252 234.143 119.658 232.493 119.385ZM187.24 125.762C185.933 125.475 185.375 127.491 186.686 127.78C187.615 127.984 188.402 128.452 188.933 129.246L188.989 129.332C189.703 130.468 191.507 129.42 190.789 128.276C189.98 126.99 188.724 126.089 187.24 125.762ZM225.527 124.513C225.066 124.188 224.369 124.429 224.102 124.888C223.807 125.393 224 125.956 224.432 126.287L224.476 126.319C224.872 126.598 225.257 127.098 225.305 127.611L225.31 127.675C225.362 129.017 227.446 129.024 227.394 127.675C227.343 126.356 226.579 125.254 225.527 124.513Z" fill="black"/>
<path fill-rule="evenodd" clip-rule="evenodd" d="M203.392 158.679C201.484 159.233 199.436 159.282 197.491 158.711C195.727 158.192 193.916 157.052 192.617 155.542C191.464 154.201 190.717 152.572 190.746 150.832C190.75 150.634 190.821 150.468 190.93 150.339C191.047 150.201 191.211 150.106 191.387 150.064C191.568 150.022 191.759 150.037 191.922 150.111C192.069 150.178 192.195 150.292 192.274 150.458C192.474 150.72 192.672 150.979 192.872 151.23C194.476 153.214 196.03 154.696 198.442 155.228C199.751 155.516 201.058 155.388 202.258 154.948C203.541 154.477 204.702 153.648 205.611 152.588C206.022 152.109 206.508 151.913 206.982 151.91C207.52 151.906 208.051 152.157 208.452 152.556C208.845 152.95 209.109 153.484 209.133 154.042C209.154 154.533 208.994 155.045 208.569 155.502C207.169 157.007 205.355 158.11 203.392 158.679ZM203.333 133.837C205.288 135.028 208.268 137.803 206.164 140.754C203.688 143.356 200.122 140.373 198.365 139.024C196.736 137.978 194.905 140.667 196.417 141.888C209.114 151.301 214.267 134.149 204.322 132.438C203.227 132.249 202.82 133.469 203.333 133.837ZM185.037 128.6C184.409 128.197 183.669 128.059 182.85 128.432C182.209 128.724 181.086 129.696 180.304 130.974C179.769 131.848 179.39 132.874 179.469 133.942C179.487 134.19 179.396 134.373 179.252 134.508C179.137 134.615 178.973 134.694 178.779 134.718C178.615 134.739 178.431 134.72 178.282 134.673C177.997 134.585 177.847 134.4 177.79 134.249C177.242 132.794 177.478 131.169 178.092 129.704C178.92 127.727 180.423 126.07 181.408 125.536C183.093 124.622 185.082 124.58 186.77 125.511C188.206 126.304 189.105 127.584 189.998 128.888C190.188 129.166 190.377 129.441 190.572 129.711C190.962 130.253 191.001 130.79 190.85 131.251C190.682 131.762 190.255 132.193 189.721 132.418C189.227 132.627 188.654 132.656 188.147 132.442C187.719 132.261 187.326 131.908 187.077 131.31C186.658 130.302 185.96 129.191 185.037 128.6ZM216.963 130.841C216.532 131.066 216.195 131.134 215.718 130.99C215.454 130.911 215.193 130.759 214.988 130.554C214.786 130.351 214.64 130.099 214.583 129.819C214.443 129.129 214.066 128.483 213.528 128.061C213.069 127.701 212.489 127.51 211.846 127.618C211.151 127.734 210.49 128.18 210.034 128.705C209.882 128.881 209.763 129.081 209.643 129.279C209.418 129.651 209.2 129.995 208.891 130.268C208.773 130.372 208.596 130.443 208.425 130.443C208.356 130.443 208.285 130.432 208.218 130.411C207.527 129.717 207.394 129.19 207.416 128.667C207.439 128.119 207.655 127.565 208.004 127.047C208.822 125.833 210.374 124.837 211.422 124.612C212.857 124.303 214.282 124.674 215.425 125.476C216.601 126.302 217.472 127.584 217.743 129.029C217.809 129.377 217.781 129.752 217.648 130.078C217.519 130.396 217.294 130.669 216.963 130.841ZM188.202 115.654C187.341 116.494 186.321 116.624 185.29 116.74C184.717 116.805 184.26 116.857 183.81 116.959C182.573 117.239 181.35 117.66 180.235 118.266C179.068 118.9 177.797 119.665 176.883 120.645C176.666 120.878 176.461 121.122 176.256 121.367C176.068 121.591 175.888 121.806 175.698 122.013C175.48 122.252 175.273 122.502 175.067 122.751C174.939 122.961 174.914 123.013 174.888 123.066C174.85 123.147 174.805 123.238 174.754 123.335C174.683 123.468 174.601 123.613 174.515 123.745C174.371 123.987 174.294 124.053 174.228 124.083C174.118 124.132 174.013 124.156 173.911 124.143C173.816 124.131 173.727 124.085 173.638 124.01C173.196 123.636 173.065 123.022 173.079 122.371C173.099 121.382 173.463 120.287 173.799 119.614C174.58 118.05 175.663 116.425 176.964 115.258C178.45 113.926 180.075 112.917 181.942 112.222C183.102 111.79 184.446 111.394 185.71 111.444C186.619 111.48 187.488 111.75 188.205 112.427C188.646 112.842 188.857 113.432 188.857 114.022C188.857 114.624 188.637 115.229 188.202 115.654ZM218.714 123.347C218.659 123.437 218.584 123.499 218.499 123.536C218.411 123.575 218.312 123.587 218.217 123.571C218.123 123.555 218.033 123.512 217.962 123.446C217.894 123.384 217.842 123.301 217.819 123.199C217.247 120.684 216.137 118.814 213.768 117.607C212.602 117.014 211.262 116.637 209.993 116.336C209.624 116.249 209.235 116.192 208.842 116.135C207.612 115.955 206.374 115.749 205.572 114.754C205.089 114.154 204.886 113.388 205.001 112.686C205.109 112.026 205.494 111.421 206.195 111.058C207.938 110.155 210.105 111.041 211.866 111.796C211.997 111.852 212.125 111.907 212.25 111.96C213.972 112.688 215.543 113.648 216.834 115.022C217.858 116.112 218.807 117.723 219.19 119.381C219.508 120.76 219.433 122.168 218.714 123.347Z" fill="black"/>
</svg>
